<svg xmlns="http://www.w3.org/2000/svg" xmlns:xlink="http://www.w3.org/1999/xlink" viewBox="0 0 155.119 121.6"><defs><style>.a{fill:#1078b4;}.b{fill:#13435f;}.c{fill:#0f547c;}.d{filter:url(#e);}.e{filter:url(#c);}.f{filter:url(#a);}</style><filter id="a" x="37.009" y="13.399" width="118.11" height="108.2" filterUnits="userSpaceOnUse"><feOffset dy="3" input="SourceAlpha"/><feGaussianBlur stdDeviation="3" result="b"/><feFlood flood-opacity="0.161"/><feComposite operator="in" in2="b"/><feComposite in="SourceGraphic"/></filter><filter id="c" x="27" y="0" width="48.396" height="48.987" filterUnits="userSpaceOnUse"><feOffset dy="3" input="SourceAlpha"/><feGaussianBlur stdDeviation="3" result="d"/><feFlood flood-opacity="0.161"/><feComposite operator="in" in2="d"/><feComposite in="SourceGraphic"/></filter><filter id="e" x="0" y="21" width="72.884" height="73.952" filterUnits="userSpaceOnUse"><feOffset dy="3" input="SourceAlpha"/><feGaussianBlur stdDeviation="3" result="f"/><feFlood flood-opacity="0.161"/><feComposite operator="in" in2="f"/><feComposite in="SourceGraphic"/></filter></defs><g transform="translate(-102.091 -1091.4)"><g class="f" transform="matrix(1, 0, 0, 1, 102.09, 1091.4)"><path class="a" d="M942.11,349a9.024,9.024,0,0,1,6.371,2.706,8.865,8.865,0,0,1,2.73,6.314v54.12a8.866,8.866,0,0,1-2.73,6.314,9.024,9.024,0,0,1-6.371,2.706H910.256l9.1,13.53v4.51h-36.4v-4.51l9.1-13.53H860.2a9.025,9.025,0,0,1-6.371-2.706,8.866,8.866,0,0,1-2.73-6.314V358.02a8.867,8.867,0,0,1,2.73-6.314A9.025,9.025,0,0,1,860.2,349Zm0,54.12v-45.1H860.2v45.1Z" transform="translate(-805.09 -329.6)"/></g><g class="e" transform="matrix(1, 0, 0, 1, 102.09, 1091.4)"><path class="b" d="M65.91,1166.443l3.254,2.479a.918.918,0,0,1,.155,1.084l-3.1,5.423a.69.69,0,0,1-.93.31l-3.874-1.549a12.634,12.634,0,0,1-2.634,1.549l-.62,4.028c-.155.465-.31.62-.775.62h-6.2a.791.791,0,0,1-.775-.62l-.62-4.028a9.066,9.066,0,0,1-2.634-1.549l-3.874,1.549a.69.69,0,0,1-.93-.31l-3.1-5.423a.748.748,0,0,1,.155-1.084l3.254-2.479v-3.1l-3.254-2.479a.918.918,0,0,1-.155-1.084l3.1-5.423a.69.69,0,0,1,.93-.31l3.874,1.549a12.634,12.634,0,0,1,2.634-1.549l.62-4.028c.155-.465.31-.62.775-.62h6.2a.791.791,0,0,1,.775.62l.62,4.028a9.069,9.069,0,0,1,2.634,1.549l3.874-1.549a.69.69,0,0,1,.93.31l3.1,5.423a.748.748,0,0,1-.155,1.084l-3.254,2.479v3.1Zm-15.339,2.324a5.617,5.617,0,1,0-1.549-3.874A5.14,5.14,0,0,0,50.571,1168.768Z" transform="translate(-3.09 -1143.4)"/></g><g class="d" transform="matrix(1, 0, 0, 1, 102.09, 1091.4)"><path class="c" d="M87.515,1180.174l5.875,4.476a1.657,1.657,0,0,1,.28,1.958l-5.6,9.792a1.245,1.245,0,0,1-1.679.559l-6.994-2.8a22.81,22.81,0,0,1-4.756,2.8l-1.119,7.274c-.28.839-.56,1.119-1.4,1.119H60.938a1.428,1.428,0,0,1-1.4-1.119l-1.119-7.274a16.371,16.371,0,0,1-4.756-2.8l-6.994,2.8a1.245,1.245,0,0,1-1.679-.559l-5.6-9.792a1.35,1.35,0,0,1,.28-1.958l5.875-4.476v-5.6l-5.875-4.476a1.657,1.657,0,0,1-.28-1.958l5.6-9.792a1.245,1.245,0,0,1,1.679-.559l6.994,2.8a22.81,22.81,0,0,1,4.756-2.8l1.119-7.274c.28-.839.56-1.119,1.4-1.119H72.128a1.428,1.428,0,0,1,1.4,1.119l1.119,7.274a16.376,16.376,0,0,1,4.756,2.8l6.994-2.8a1.245,1.245,0,0,1,1.679.559l5.6,9.792a1.35,1.35,0,0,1-.28,1.958l-5.875,4.476v5.6Zm-27.7,4.2a9.28,9.28,0,0,0,6.994,2.8,9.793,9.793,0,1,0,0-19.583,9.892,9.892,0,0,0-6.994,16.786Z" transform="translate(-30.09 -1122.4)"/></g></g></svg>