<svg xmlns="http://www.w3.org/2000/svg" viewBox="0 0 84 122">
  <defs>
    <style>
      .cls-1 {
        fill: #1078b4;
      }

      .cls-2 {
        fill: #f7f6f6;
      }
    </style>
  </defs>
  <g id="Group_74" data-name="Group 74" transform="translate(-718 -1085)">
    <rect id="Rectangle_528" data-name="Rectangle 528" class="cls-1" width="30" height="21" transform="translate(745 1098)"/>
    <rect id="Rectangle_529" data-name="Rectangle 529" class="cls-1" width="4" height="10" transform="translate(773 1102)"/>
    <rect id="Rectangle_530" data-name="Rectangle 530" class="cls-1" width="5" height="12" transform="translate(742 1102)"/>
    <rect id="Rectangle_531" data-name="Rectangle 531" class="cls-1" width="50" height="30" transform="translate(735 1123)"/>
    <rect id="Rectangle_532" data-name="Rectangle 532" class="cls-1" width="16" height="15" transform="translate(785 1125)"/>
    <rect id="Rectangle_533" data-name="Rectangle 533" class="cls-1" width="16" height="15" transform="translate(719 1125)"/>
    <rect id="Rectangle_534" data-name="Rectangle 534" class="cls-1" width="7" height="13" transform="translate(790 1140)"/>
    <rect id="Rectangle_535" data-name="Rectangle 535" class="cls-1" width="8" height="13" transform="translate(723 1140)"/>
    <rect id="Rectangle_536" data-name="Rectangle 536" class="cls-1" width="11" height="35" transform="translate(754 1172)"/>
    <rect id="Rectangle_537" data-name="Rectangle 537" class="cls-1" width="5" height="35" rx="2" transform="translate(767 1155)"/>
    <rect id="Rectangle_538" data-name="Rectangle 538" class="cls-1" width="5" height="35" rx="2" transform="translate(747 1156)"/>
    <rect id="Rectangle_539" data-name="Rectangle 539" class="cls-1" width="15" height="9" transform="translate(752 1153)"/>
    <ellipse id="Ellipse_15" data-name="Ellipse 15" class="cls-1" cx="8" cy="8.5" rx="8" ry="8.5" transform="translate(718 1153)"/>
    <ellipse id="Ellipse_17" data-name="Ellipse 17" class="cls-1" cx="8" cy="8.5" rx="8" ry="8.5" transform="translate(752 1118)"/>
    <ellipse id="Ellipse_16" data-name="Ellipse 16" class="cls-1" cx="8" cy="8.5" rx="8" ry="8.5" transform="translate(786 1153)"/>
    <circle id="Ellipse_18" data-name="Ellipse 18" class="cls-1" cx="4.5" cy="4.5" r="4.5" transform="translate(755 1093)"/>
    <rect id="Rectangle_540" data-name="Rectangle 540" class="cls-1" width="3" height="13" transform="translate(758 1085)"/>
    <ellipse id="Ellipse_19" data-name="Ellipse 19" class="cls-2" cx="5" cy="7" rx="5" ry="7" transform="translate(721 1160)"/>
    <ellipse id="Ellipse_20" data-name="Ellipse 20" class="cls-2" cx="5" cy="7" rx="5" ry="7" transform="translate(789 1160)"/>
  </g>
</svg>
